<mxfile host="app.diagrams.net" modified="2023-06-28T07:42:14.719Z" agent="Mozilla/5.0 (Windows NT 10.0; Win64; x64) AppleWebKit/537.36 (KHTML, like Gecko) Chrome/114.0.0.0 Safari/537.36" etag="wpkUXRzeAf_Q80bw1m8s" version="21.4.0" type="device">
  <diagram name="Page-1" id="5DeTd6EoAsw-eenfWIao">
    <mxGraphModel dx="1750" dy="902" grid="1" gridSize="10" guides="1" tooltips="1" connect="1" arrows="1" fold="1" page="1" pageScale="1" pageWidth="850" pageHeight="1100" math="0" shadow="0">
      <root>
        <mxCell id="0" />
        <mxCell id="1" parent="0" />
        <mxCell id="HlXFhAkysqfJ9ZURSFGi-5" value="" style="sketch=0;points=[[0,0,0],[0.25,0,0],[0.5,0,0],[0.75,0,0],[1,0,0],[0,1,0],[0.25,1,0],[0.5,1,0],[0.75,1,0],[1,1,0],[0,0.25,0],[0,0.5,0],[0,0.75,0],[1,0.25,0],[1,0.5,0],[1,0.75,0]];outlineConnect=0;fontColor=#232F3E;gradientColor=#4D72F3;gradientDirection=north;fillColor=#3334B9;strokeColor=#ffffff;dashed=0;verticalLabelPosition=bottom;verticalAlign=top;align=center;html=1;fontSize=12;fontStyle=0;aspect=fixed;shape=mxgraph.aws4.resourceIcon;resIcon=mxgraph.aws4.dynamodb;" vertex="1" parent="1">
          <mxGeometry x="645" y="47" width="78" height="78" as="geometry" />
        </mxCell>
        <mxCell id="HlXFhAkysqfJ9ZURSFGi-6" value="" style="sketch=0;points=[[0,0,0],[0.25,0,0],[0.5,0,0],[0.75,0,0],[1,0,0],[0,1,0],[0.25,1,0],[0.5,1,0],[0.75,1,0],[1,1,0],[0,0.25,0],[0,0.5,0],[0,0.75,0],[1,0.25,0],[1,0.5,0],[1,0.75,0]];outlineConnect=0;fontColor=#232F3E;gradientColor=#945DF2;gradientDirection=north;fillColor=#5A30B5;strokeColor=#ffffff;dashed=0;verticalLabelPosition=bottom;verticalAlign=top;align=center;html=1;fontSize=12;fontStyle=0;aspect=fixed;shape=mxgraph.aws4.resourceIcon;resIcon=mxgraph.aws4.api_gateway;" vertex="1" parent="1">
          <mxGeometry x="936" y="41.5" width="78" height="78" as="geometry" />
        </mxCell>
        <mxCell id="HlXFhAkysqfJ9ZURSFGi-12" value="" style="sketch=0;outlineConnect=0;fontColor=#232F3E;gradientColor=none;fillColor=#232F3D;strokeColor=none;dashed=0;verticalLabelPosition=bottom;verticalAlign=top;align=center;html=1;fontSize=12;fontStyle=0;aspect=fixed;pointerEvents=1;shape=mxgraph.aws4.users;" vertex="1" parent="1">
          <mxGeometry x="1096" y="38" width="78" height="78" as="geometry" />
        </mxCell>
        <mxCell id="HlXFhAkysqfJ9ZURSFGi-13" value="" style="sketch=0;outlineConnect=0;fontColor=#232F3E;gradientColor=none;fillColor=#232F3D;strokeColor=none;dashed=0;verticalLabelPosition=bottom;verticalAlign=top;align=center;html=1;fontSize=12;fontStyle=0;aspect=fixed;pointerEvents=1;shape=mxgraph.aws4.client;" vertex="1" parent="1">
          <mxGeometry x="132.34999999999997" y="49" width="78" height="76" as="geometry" />
        </mxCell>
        <mxCell id="HlXFhAkysqfJ9ZURSFGi-15" value="" style="sketch=0;points=[[0,0,0],[0.25,0,0],[0.5,0,0],[0.75,0,0],[1,0,0],[0,1,0],[0.25,1,0],[0.5,1,0],[0.75,1,0],[1,1,0],[0,0.25,0],[0,0.5,0],[0,0.75,0],[1,0.25,0],[1,0.5,0],[1,0.75,0]];outlineConnect=0;fontColor=#232F3E;gradientColor=#F78E04;gradientDirection=north;fillColor=#D05C17;strokeColor=#ffffff;dashed=0;verticalLabelPosition=bottom;verticalAlign=top;align=center;html=1;fontSize=12;fontStyle=0;aspect=fixed;shape=mxgraph.aws4.resourceIcon;resIcon=mxgraph.aws4.lambda;" vertex="1" parent="1">
          <mxGeometry x="796" y="41.5" width="78" height="78" as="geometry" />
        </mxCell>
        <mxCell id="HlXFhAkysqfJ9ZURSFGi-16" value="" style="edgeStyle=orthogonalEdgeStyle;html=1;endArrow=none;elbow=vertical;startArrow=block;startFill=1;strokeColor=#545B64;rounded=0;strokeWidth=2;" edge="1" parent="1">
          <mxGeometry width="100" relative="1" as="geometry">
            <mxPoint x="174.66999999999996" y="135" as="sourcePoint" />
            <mxPoint x="174.66999999999996" y="195" as="targetPoint" />
          </mxGeometry>
        </mxCell>
        <mxCell id="HlXFhAkysqfJ9ZURSFGi-17" value="" style="edgeStyle=orthogonalEdgeStyle;html=1;endArrow=none;elbow=vertical;startArrow=block;startFill=1;strokeColor=#545B64;rounded=0;strokeWidth=2;" edge="1" parent="1">
          <mxGeometry width="100" relative="1" as="geometry">
            <mxPoint x="324" y="83.5" as="sourcePoint" />
            <mxPoint x="234" y="83.5" as="targetPoint" />
          </mxGeometry>
        </mxCell>
        <mxCell id="HlXFhAkysqfJ9ZURSFGi-28" value="AutonomousDogFeeder lamda" style="text;html=1;align=center;verticalAlign=middle;resizable=0;points=[];autosize=1;strokeColor=none;fillColor=none;fontSize=14;" vertex="1" parent="1">
          <mxGeometry x="730" y="119.5" width="210" height="30" as="geometry" />
        </mxCell>
        <mxCell id="HlXFhAkysqfJ9ZURSFGi-29" value="API Gateway" style="text;html=1;align=center;verticalAlign=middle;resizable=0;points=[];autosize=1;strokeColor=none;fillColor=none;fontSize=14;" vertex="1" parent="1">
          <mxGeometry x="920" y="11.5" width="110" height="30" as="geometry" />
        </mxCell>
        <mxCell id="HlXFhAkysqfJ9ZURSFGi-32" value="" style="shape=image;verticalLabelPosition=bottom;labelBackgroundColor=default;verticalAlign=top;aspect=fixed;imageAspect=0;image=data:image/png,iVBORw0KGgoAAAANSUhEUgAAAPMAAADQCAMAAADlEKeVAAAAkFBMVEX///9mAGZfAF9dAF1ZAFljAGOyk7JbAFuYbJhWAFaBRIHt5+2+pL7y7vKheaGvjq91MXWLV4vDr8PUwtShfqHBqcGQX5Df0t/Ktcq4nLjp4OlpEGm4n7j69/rXx9fRv9GGToaphqmbcZt9PX10K3RvH2+VZ5Xq4erj1+OES4RyK3JPAE9HAEd8OnxwI3B8M3ywj8hsAAAMRklEQVR4nO2da1vivBaGaQ7EyklEKOAUARVxZjvz///dLihtstZKGvSyJL59vs2Q1t5NmsM6JJ1Oq1atWrVq1apVq7jVq1X+tZt8P8J5yreiXulsUnuf3f/s1195vLTmNJAs8ZBUclRXXSsmbZczFlJd31ifEz13Os7c98pflfWdPTWD46Ms9UU+PLh4mrtv17XeTtS8rwa18GrZFbVKps77Zbb2zRYNEdWrex5zIS6d1Pkbp5m7TSHV6nzmgjpxtvCh+IHMSaL+rhz3nFIfdfTMiUzHjsEn4/ijDoh5lHLOGWPSe8gqqTf2u/bu0e0CYt4/zOe3i9Fw9pgoobh9VoHFEvvcLH+D7ScgZl29bLoZS6G8wdOZfUo5Bt13oMzvGqy6ayb8uCWz9+A7c04WNPNR+19rpXy6N0dVDw3o8JkPWg0TUY/NpHVSaUDHwVwo2xTrqdqqHtku16GjYS602tV+2/zR1r63VUcWE3Mx7vSfhZtaMlv7npXQcTEXWq1TN3Xat1y5ZrEydzrLnZtabC0XnmwSETIXM5atk5pf05fliYyXuaB21rV8HtBX8ZiZi6nKtaM3k2xJXvRufoqWudN5SGgzyBHaYvOairiZD6tPe1Wn9EpryCNn7vQerRbdJH0gL3mUITGvFtPb+WS/PMvPMLV/1Sm50MqDYj7aSZQSKXseb6aZJ/rAXtV0TWdpQMyVPUxKxpW4v+rvva6zftX0N734EyJzSS7YbFrvXdonVmiy915bV1+Ni7R7Sp4+denBtlK+trVvQV2ah1vPJTZLnxb0xKrUyOKckqzmwgvLYd8usGcu030xQbH03/I+KHczlNumL8Wz0zm1tJjF5WNTz/8Z1fkxJHcOMvlf+np21RjB+fLw3TDuor6mbyDCcb0iefmrmMv9Co33H0rdXcEl5emjU892hJnF4Rxs5+3rl5TpzMqwI6HlW5Mc58jfFyuVtYHT0PyuSZAzdI7/WV3bqnpM3iXUT/osn7tUNpfcK3kbFubUpMvP8rantnGXDDOT40ZZfNV/fPudpKngnpEG7JlecuXkMkvcNoxzhgbLyWJ74+Vtl4K2efXIVZYKdsA6ad+feXjbU3paRkYUBtq6gfbd57SmXxP0R92n4sJETbBkKFqOErfXma/J63ak/aHZZ/+CVmNnZTN6jvWXeFNs2PCjf0G9oSuwQj5RQ2+Pat1pnZEpJOUbB7X8S0HPCWhpcVgGqoHD/SpvqCtmxFsStG8jWC3txntG2X9y4h3J+8Yf+4uaE/GqH9DU2LsiRmn7gixU5WMyHrsQp7rkK6J1xzNelZrbXHKCiJzJCWYesHHMpp7Fukm6aai+mzX/zF/XztK+ObGGeMStgv9q/pG/rgXtp5G/cdElUTSoLzr3NWVMaGiqHxviL4GH1HWP/qTq/vqq+/BSV3JPN2/C6JXjMV0+f8vTf05He9jB3S7UeOH2tr/QIzVh9CKMbCIge6D2eJKJZOPCpqHlDJfEzHL9XQTnC1QJE899+xf+QjZvIoLkFzZ4p7UfT2NCzVBysbEasfZkR0Z0ykHnV1H2bZZubHVN9t4MOyxw6mngzAf3q21sWZBmAdxuUeMOnrlYC91Yvj/K6EWYBTYB55RZfTcytSwMKKMXHokG8COIgfngkiO/asroJf+iYjPwauJgLqYqpPmOWjhh510GSkXCXLRv0pQ1xq2bmFuC1NhYmIsemeq/c8LFrtDbAcNVPMwJ2ZPNiUUEMoOCXiwiZjpzijAL4LyEV6NQTMxkFDphFsBLjbnxCUTFTBq9tviyFM7Sc+PFxMVMGb3QlIOCWkvnzxeTDzO1VxCaWxaCZaZ6446MmfKn5riiUS9mNIbYmCmjFzb04TfzpDXu6JgJs0CP+KJhmZF28/iYCbPAGo3RCraGVZi5/b5xgNgsMEGTMfRicm2dESEzYbck1tGwiDZfi5CZmJng4UrAxqAViZFZvsJLsWMDWdEegty3wj+uN0XmfvxedqCE1rlHySxR9B9u3GhIi/t7LioamsdWqOcWMOi3GtDiZMY2bzQt4dBaUjWFOJlxUskrHK4YTH6dhrgPzTm5CSlsudjZtQYlsrL5R8qMGjf+oGEnVhnDI2VG5h9sORCwn4u9nhMFr8bLDDiIP5+KxMqMEtiRdR913K+xM3OYRoO9j9AyfBU7M1os9hEz3Oi0fCuxMqOhaAK9OGjGvYidGS2Q93CwQrlF5aQkIOapfZsoQim4Gvmi5T9QolxNBhQJSBjnHRLAuk9YfMH9y9aPJnEX1J19kyiCGRpCEDOciJ2maiqolKOrVHoLGYjQtRwUWIn3C2HfdmFlw2tf3UDmf7AEXHvtjyW2AUV7tmrVqlWrVq1atWrVqlWrVt+lwT7Lsv0gyO3AVsO7Uj42t/ldbflVd5ykQiilhEiTcRev/gezKz+9HyeR+Rbf+e3x0ReslKg3x3TTqjhpsFrtwP5akimxA9g9T+MSe7eVTXxtUcIvOd7wK9B7QmsyY1Ax85TeakmKe6NNkDvuUHrfpwTH0lnEPsGMo5uAjDBVxDyXVtN38YvW7kJirqtoM0oVMA+u3SRiXXZoQTHX7G60NXNEDGbbLtPazfnpsw6K2X0uLQhGNpjtR91qOmXkhMXs3Ab7CuS5acwbP4qPjQHDYnbtnABjzjXmkS/Ee00HxuzYJ3gH81ZL5jls2JJ/nFCO9nA45iz0zDPNjWQb43z0d7/Owx+jeGIrLv747VKE/P7Win5B+cknZtgAON/Oj8ek5Mv5loPx67h/50BXru3oyja58dvx/uZ/DfSUjYX5m99UFzHTu7l1cHpyxfxkdueJGUMylXVDg87scSaG9tc+56JGzIll11Wc/Hdi7hufW4pnZ1ujOeL9O7/AbDvUzinMTG2C1KFSmD+YzTxf8sSevvG+UPjy5ZnpHQiJHM8P5pExY6e3GDY2bEUPGgAzlfhHZap/MDun4CcZ+9/Big6AmchAJ7eTeQe8NZq29e/ofwbe/4LM5b2IrQaqatae78h8rT2CdVN1M9oIRr5ejln+K2+Gnr2qZq3UkdmMInL8Ib05CPOnyzGzKsscVfSr9jqqCw7Memq684HvtNYNUgYvx8wn1WOBiq42B5ezlyq++sCsWxGEaysxIxPSJLsg820VrwY2j62+2fQlM5nf9Cdw/iXtIwBRoJdk7lgqWqvmnbbIOTLrXZPbsqSfkyBtvzTPXG1FKPXuSKvmHmAe6Hms7sA93chiJiRclFmbU6lqQrUquQ6JcSazngHJ3Cs5fb5mZpJdllmfO5dFHvVqhsxaz1SzyNFnP2YSxmWZteDskqCq5mPjNZn13pi7DzzQZyXKMLtdmFmfI6InOsYl/0DmBQf306r5mFthMmc/oG3rd3wfUH5X1Zxj5h/Qh3X0Jni84USAx/lxY9VB1R0PFV3Ns3hOMH9yTsJsv1yI+baEKiZjGcrYBMx2Eih97mm+ncszVwmL8kkzdp6AJp9cY2RhrjE+/muuVXT1cZ86KMDsvZbUkwaVaVoNgFmzV8NOvIOYvW0GhqXQtL2HwDzB7qTq5oDZtA3Z4zl0sxlMnQuBmToer/wNMhsw9jNb9DtC01MQzCtY0dpZLJDZMHShJNeTzKAM8GMQzEaDBfWHmE2bPt26b537v4XBDE7H0xsjYjbPPCChTV8tMiGFwWxub2aYQRFzZ2FC46e+M5AVes5AmA2/hdEdY2bgi+X3Zhc1vzd9sdgFGAiz7m02/VcEM/DGSyWHDy9Hn/vLw1CCUAMiwzcUZs0PaTqkCWYcW8G4EExKITh0h1G+2lCYq13wQYQJxewbNlS8P4opGOb8I1JVgpMPSebOnR+0IA+1Doa5M1inh9CdN7CrCs3cGXnFxNFE4TAfzv5dLtFmwxZm+3FslaRlOh4SMykbc6d3Uxe6xizng8bL3OlMWc02Hoo+NSRm5mJKJp3HA0tJngXUOLMqA/s9mctEAfKwyPkY5iYY/7inIvV+szK7QHkwMy0Z4VPM8/X4Q2u/BI7stbyA3hsnf9hcy/SQgqLUIQfFWIyTMUm7cam1B8RaKx7S+dj5S7aarLJeDs+qZ3Gd+ftZ9czTEKI4r/3LMoPL+PbSz9OIzLPKlM2A9LM0NaBt51z9MJnJC2Tw78/T1ox4/m/soDQzrWbuA0h/ihZKaTOogA7M/FZNuttZqXGQqdGtWrVq1apVq1atWn1e/wctL78J/UCrygAAAABJRU5ErkJggg==;" vertex="1" parent="1">
          <mxGeometry x="254" y="95" width="46.73" height="40" as="geometry" />
        </mxCell>
        <mxCell id="HlXFhAkysqfJ9ZURSFGi-33" value="" style="shape=image;verticalLabelPosition=bottom;labelBackgroundColor=default;verticalAlign=top;aspect=fixed;imageAspect=0;image=data:image/png,iVBORw0KGgoAAAANSUhEUgAAAPMAAADQCAMAAADlEKeVAAAAkFBMVEX///9mAGZfAF9dAF1ZAFljAGOyk7JbAFuYbJhWAFaBRIHt5+2+pL7y7vKheaGvjq91MXWLV4vDr8PUwtShfqHBqcGQX5Df0t/Ktcq4nLjp4OlpEGm4n7j69/rXx9fRv9GGToaphqmbcZt9PX10K3RvH2+VZ5Xq4erj1+OES4RyK3JPAE9HAEd8OnxwI3B8M3ywj8hsAAAMRklEQVR4nO2da1vivBaGaQ7EyklEKOAUARVxZjvz///dLihtstZKGvSyJL59vs2Q1t5NmsM6JJ1Oq1atWrVq1apVq7jVq1X+tZt8P8J5yreiXulsUnuf3f/s1195vLTmNJAs8ZBUclRXXSsmbZczFlJd31ifEz13Os7c98pflfWdPTWD46Ms9UU+PLh4mrtv17XeTtS8rwa18GrZFbVKps77Zbb2zRYNEdWrex5zIS6d1Pkbp5m7TSHV6nzmgjpxtvCh+IHMSaL+rhz3nFIfdfTMiUzHjsEn4/ijDoh5lHLOGWPSe8gqqTf2u/bu0e0CYt4/zOe3i9Fw9pgoobh9VoHFEvvcLH+D7ScgZl29bLoZS6G8wdOZfUo5Bt13oMzvGqy6ayb8uCWz9+A7c04WNPNR+19rpXy6N0dVDw3o8JkPWg0TUY/NpHVSaUDHwVwo2xTrqdqqHtku16GjYS602tV+2/zR1r63VUcWE3Mx7vSfhZtaMlv7npXQcTEXWq1TN3Xat1y5ZrEydzrLnZtabC0XnmwSETIXM5atk5pf05fliYyXuaB21rV8HtBX8ZiZi6nKtaM3k2xJXvRufoqWudN5SGgzyBHaYvOairiZD6tPe1Wn9EpryCNn7vQerRbdJH0gL3mUITGvFtPb+WS/PMvPMLV/1Sm50MqDYj7aSZQSKXseb6aZJ/rAXtV0TWdpQMyVPUxKxpW4v+rvva6zftX0N734EyJzSS7YbFrvXdonVmiy915bV1+Ni7R7Sp4+denBtlK+trVvQV2ah1vPJTZLnxb0xKrUyOKckqzmwgvLYd8usGcu030xQbH03/I+KHczlNumL8Wz0zm1tJjF5WNTz/8Z1fkxJHcOMvlf+np21RjB+fLw3TDuor6mbyDCcb0iefmrmMv9Co33H0rdXcEl5emjU892hJnF4Rxs5+3rl5TpzMqwI6HlW5Mc58jfFyuVtYHT0PyuSZAzdI7/WV3bqnpM3iXUT/osn7tUNpfcK3kbFubUpMvP8rantnGXDDOT40ZZfNV/fPudpKngnpEG7JlecuXkMkvcNoxzhgbLyWJ74+Vtl4K2efXIVZYKdsA6ad+feXjbU3paRkYUBtq6gfbd57SmXxP0R92n4sJETbBkKFqOErfXma/J63ak/aHZZ/+CVmNnZTN6jvWXeFNs2PCjf0G9oSuwQj5RQ2+Pat1pnZEpJOUbB7X8S0HPCWhpcVgGqoHD/SpvqCtmxFsStG8jWC3txntG2X9y4h3J+8Yf+4uaE/GqH9DU2LsiRmn7gixU5WMyHrsQp7rkK6J1xzNelZrbXHKCiJzJCWYesHHMpp7Fukm6aai+mzX/zF/XztK+ObGGeMStgv9q/pG/rgXtp5G/cdElUTSoLzr3NWVMaGiqHxviL4GH1HWP/qTq/vqq+/BSV3JPN2/C6JXjMV0+f8vTf05He9jB3S7UeOH2tr/QIzVh9CKMbCIge6D2eJKJZOPCpqHlDJfEzHL9XQTnC1QJE899+xf+QjZvIoLkFzZ4p7UfT2NCzVBysbEasfZkR0Z0ykHnV1H2bZZubHVN9t4MOyxw6mngzAf3q21sWZBmAdxuUeMOnrlYC91Yvj/K6EWYBTYB55RZfTcytSwMKKMXHokG8COIgfngkiO/asroJf+iYjPwauJgLqYqpPmOWjhh510GSkXCXLRv0pQ1xq2bmFuC1NhYmIsemeq/c8LFrtDbAcNVPMwJ2ZPNiUUEMoOCXiwiZjpzijAL4LyEV6NQTMxkFDphFsBLjbnxCUTFTBq9tviyFM7Sc+PFxMVMGb3QlIOCWkvnzxeTDzO1VxCaWxaCZaZ6446MmfKn5riiUS9mNIbYmCmjFzb04TfzpDXu6JgJs0CP+KJhmZF28/iYCbPAGo3RCraGVZi5/b5xgNgsMEGTMfRicm2dESEzYbck1tGwiDZfi5CZmJng4UrAxqAViZFZvsJLsWMDWdEegty3wj+uN0XmfvxedqCE1rlHySxR9B9u3GhIi/t7LioamsdWqOcWMOi3GtDiZMY2bzQt4dBaUjWFOJlxUskrHK4YTH6dhrgPzTm5CSlsudjZtQYlsrL5R8qMGjf+oGEnVhnDI2VG5h9sORCwn4u9nhMFr8bLDDiIP5+KxMqMEtiRdR913K+xM3OYRoO9j9AyfBU7M1os9hEz3Oi0fCuxMqOhaAK9OGjGvYidGS2Q93CwQrlF5aQkIOapfZsoQim4Gvmi5T9QolxNBhQJSBjnHRLAuk9YfMH9y9aPJnEX1J19kyiCGRpCEDOciJ2maiqolKOrVHoLGYjQtRwUWIn3C2HfdmFlw2tf3UDmf7AEXHvtjyW2AUV7tmrVqlWrVq1atWrVqlWrVt+lwT7Lsv0gyO3AVsO7Uj42t/ldbflVd5ykQiilhEiTcRev/gezKz+9HyeR+Rbf+e3x0ReslKg3x3TTqjhpsFrtwP5akimxA9g9T+MSe7eVTXxtUcIvOd7wK9B7QmsyY1Ax85TeakmKe6NNkDvuUHrfpwTH0lnEPsGMo5uAjDBVxDyXVtN38YvW7kJirqtoM0oVMA+u3SRiXXZoQTHX7G60NXNEDGbbLtPazfnpsw6K2X0uLQhGNpjtR91qOmXkhMXs3Ab7CuS5acwbP4qPjQHDYnbtnABjzjXmkS/Ee00HxuzYJ3gH81ZL5jls2JJ/nFCO9nA45iz0zDPNjWQb43z0d7/Owx+jeGIrLv747VKE/P7Win5B+cknZtgAON/Oj8ek5Mv5loPx67h/50BXru3oyja58dvx/uZ/DfSUjYX5m99UFzHTu7l1cHpyxfxkdueJGUMylXVDg87scSaG9tc+56JGzIll11Wc/Hdi7hufW4pnZ1ujOeL9O7/AbDvUzinMTG2C1KFSmD+YzTxf8sSevvG+UPjy5ZnpHQiJHM8P5pExY6e3GDY2bEUPGgAzlfhHZap/MDun4CcZ+9/Big6AmchAJ7eTeQe8NZq29e/ofwbe/4LM5b2IrQaqatae78h8rT2CdVN1M9oIRr5ejln+K2+Gnr2qZq3UkdmMInL8Ib05CPOnyzGzKsscVfSr9jqqCw7Memq684HvtNYNUgYvx8wn1WOBiq42B5ezlyq++sCsWxGEaysxIxPSJLsg820VrwY2j62+2fQlM5nf9Cdw/iXtIwBRoJdk7lgqWqvmnbbIOTLrXZPbsqSfkyBtvzTPXG1FKPXuSKvmHmAe6Hms7sA93chiJiRclFmbU6lqQrUquQ6JcSazngHJ3Cs5fb5mZpJdllmfO5dFHvVqhsxaz1SzyNFnP2YSxmWZteDskqCq5mPjNZn13pi7DzzQZyXKMLtdmFmfI6InOsYl/0DmBQf306r5mFthMmc/oG3rd3wfUH5X1Zxj5h/Qh3X0Jni84USAx/lxY9VB1R0PFV3Ns3hOMH9yTsJsv1yI+baEKiZjGcrYBMx2Eih97mm+ncszVwmL8kkzdp6AJp9cY2RhrjE+/muuVXT1cZ86KMDsvZbUkwaVaVoNgFmzV8NOvIOYvW0GhqXQtL2HwDzB7qTq5oDZtA3Z4zl0sxlMnQuBmToer/wNMhsw9jNb9DtC01MQzCtY0dpZLJDZMHShJNeTzKAM8GMQzEaDBfWHmE2bPt26b537v4XBDE7H0xsjYjbPPCChTV8tMiGFwWxub2aYQRFzZ2FC46e+M5AVes5AmA2/hdEdY2bgi+X3Zhc1vzd9sdgFGAiz7m02/VcEM/DGSyWHDy9Hn/vLw1CCUAMiwzcUZs0PaTqkCWYcW8G4EExKITh0h1G+2lCYq13wQYQJxewbNlS8P4opGOb8I1JVgpMPSebOnR+0IA+1Doa5M1inh9CdN7CrCs3cGXnFxNFE4TAfzv5dLtFmwxZm+3FslaRlOh4SMykbc6d3Uxe6xizng8bL3OlMWc02Hoo+NSRm5mJKJp3HA0tJngXUOLMqA/s9mctEAfKwyPkY5iYY/7inIvV+szK7QHkwMy0Z4VPM8/X4Q2u/BI7stbyA3hsnf9hcy/SQgqLUIQfFWIyTMUm7cam1B8RaKx7S+dj5S7aarLJeDs+qZ3Gd+ftZ9czTEKI4r/3LMoPL+PbSz9OIzLPKlM2A9LM0NaBt51z9MJnJC2Tw78/T1ox4/m/soDQzrWbuA0h/ihZKaTOogA7M/FZNuttZqXGQqdGtWrVq1apVq1atWn1e/wctL78J/UCrygAAAABJRU5ErkJggg==;" vertex="1" parent="1">
          <mxGeometry x="184" y="149.5" width="46.73" height="40" as="geometry" />
        </mxCell>
        <mxCell id="HlXFhAkysqfJ9ZURSFGi-35" value="Food table" style="text;html=1;align=center;verticalAlign=middle;resizable=0;points=[];autosize=1;strokeColor=none;fillColor=none;fontSize=14;" vertex="1" parent="1">
          <mxGeometry x="555" y="56" width="90" height="30" as="geometry" />
        </mxCell>
        <mxCell id="HlXFhAkysqfJ9ZURSFGi-36" value="Water Table" style="text;html=1;align=center;verticalAlign=middle;resizable=0;points=[];autosize=1;strokeColor=none;fillColor=none;fontSize=14;" vertex="1" parent="1">
          <mxGeometry x="550" y="86" width="100" height="30" as="geometry" />
        </mxCell>
        <mxCell id="HlXFhAkysqfJ9ZURSFGi-41" value="" style="sketch=0;outlineConnect=0;fontColor=#232F3E;gradientColor=none;fillColor=#3F8624;strokeColor=none;dashed=0;verticalLabelPosition=bottom;verticalAlign=top;align=center;html=1;fontSize=12;fontStyle=0;aspect=fixed;pointerEvents=1;shape=mxgraph.aws4.generic;" vertex="1" parent="1">
          <mxGeometry x="132" y="201" width="78" height="78" as="geometry" />
        </mxCell>
        <mxCell id="HlXFhAkysqfJ9ZURSFGi-42" value="" style="shape=image;verticalLabelPosition=bottom;labelBackgroundColor=default;verticalAlign=top;aspect=fixed;imageAspect=0;image=data:image/png,iVBORw0KGgoAAAANSUhEUgAAA9EAAAG3CAYAAACzAtYdAAAAGXRFWHRTb2Z0d2FyZQBBZG9iZSBJbWFnZVJlYWR5ccllPAAATL5JREFUeNrs3QfYFdW59vFBehEQe99WELcGYxQ1BjA7KnYsaMAWG/aeRLBiQYmaYAeMXSK2GBsqmq1i741tF932AiK9l3M/zmDwSHnLLmut+f+u67mG73zn+M5az+z9zv3OzJoG8+fPjwAAAAAAwNItwxQAAAAAAECIBgAAAACAEA0AAAAAQDU0Ygoqo0GDBkwCgFrLZ7LNtMmo1kpqFdWqqhVVK6iWU7VOqrGqzWL+U3NUU1UTVNOS7XdJjVV9qvpMVbTKFQszmH0AAMLBWlglzHZMJiEagBNh2cLvpqpOqvaqjVQbqtaoxu/ZJFC/r3pP9abqDdVohevZdAsAAEI0IRqEaACVDMx2dXlz1VaqzqrfqNbxYNfnJIH6OdWzqmcUqr+kowAAEKIJ0SBEAyh1aN5W1S2pLaP41usQfKB6VPWY6kmF6kl0HAAAQjQhGoRoALUNzutrs7OqexKcm6dg2LNUj6vuU92vQP0VRwIAAIRoQjQI0QAWF5ztFu09VT1UG6f9d7XqadVtqrsUqMdzhAAAQIgmRIMQDRCcs9rsp+qtWpcZWSRbjGyE6p+qRxSo5zElAAAQognRIEQD6QnOKySh+U+qzZiRWvlcdb1qiML0t0wHAACEaEI0CNFAmMHZPsTdVEdH8e3ajZmVerHnp+1W78sUpt9kOgAAIEQTokGIBsIIz8tqc6jqKFUHZqQsRqrOU5h+jqkAAIAQTYgGIRrwMzyvrc3xqiNUrZmRihilOkdhehRTAQAAIZoQTYhmEgA/wnNHbfqpeqkaMiNV8bDqdIXpN5gKAAAI0YRoQjQAN8OzLRB2tmoP+8gyI9X/Xa8apurL+6YBACBEE6IJ0QDcCc925XlAFC8WBvdMSfozSGF6JtMBAAAhmhBNiAZQnfCc0eaCKH5VFR9Q932g6sPz0gAAEKIJ0YRoAJUNz8tpc4bqOFVTZsQ7N6hOVZiewFQAAECIJkQTogGULzzbImF9ovjqcztmxGv2jPRhCtKPMBUAABCiCdGEaAClD9BdtLlStSmzEZShqj8rTE9hKgAAIEQTognRAOofnlfQ5lLVwcxGsN5X7acg/SZTAQAAIZoQTYgGULfwbB+4PyUBmlu3w2erdp+iIH0NUwEAACGaEE2IBlC7AL2WNteptmc2Uuc21REK09OYCgAACNGEaEI0gCWHZ/uQHaW6RNWSGUktu617TwXpT5gKAAAI0YRoQjSARQfoVbW5XrUTswEZr+qhIP00UwEAACG61JZhCgB4HqB7aDOaAI2F2HPweR0bBzEVAACg1LgSXamJ5ko0UOrw3CyKFw47ltnAEpyXKxbOYRoAAGlH7iNEE6KBdAfoDbS5S/UrZgM1cK3qGIXpuUwFAIAQjfridm4AvgXoPbV5lQCNWuijulPHThOmAgAA1BdXois10VyJBuobnhtqM0B1GrOBOnpAtV+uWJjOVAAA0obcR4gmRAPpCtBttbldtSOzgXp6QrUr75IGABCiUVfczg3A9QDdXpsXCNAoke1UD+q4asFUAAAAQjSA0AJ0tyRAt2c2UOIgfTvPSAMAAEI0gJAC9P7aPKpqy2ygDHZLgnRDpgIAABCiAfgeoPtpM0zVmNlAGdlK70OYBgAAUBssLFapiWZhMaAm4dk+KINUJzIbqKDzc8XC2UwDACBk5D5CNCEaCC9AN9LmBtWBzAaq4FAF6RuZBgAAIRqEaEI04EOAtgWe7o7i51SBapit2lFB+gmmAgBAiAYhmhANEKCBpZug2kJB+iOmAgBAiMbisLAYgGoH6PsJ0HCErQR/r47LVkwFAAAgRANwMUDbFegdmQ04ZGPVTckidwAAAIRoAE4EaHs3750RV6Dhpr1VpzINAABgUXgmulITzTPRwIIAbR+GmyNW4Ybb5qi65IqF55kKAEAIyH2lw5VoAJX2DwI0PGCvXLsjn8kux1QAAABCNICqUCDpp81JzAQ8saZqMNMAAAAWxu3clZpobucGAbq3Nv9iJuChg3PFwi1MAwDAZ+Q+QjQhGvArQP/ONqrGzAY8NFmVVZD+jKkAABCiwe3cAModoDfU5l4CNDy2rOo6XnsFAAAI0QDKHaBba3Ofqh2zAc9trzqaaQAAANzOXamJ5nZupC9AL5ME6F2ZDQTCbuvumCsWvmAqAAC+IfeVTiOmAECZ9CdAV8Qs1ddJjVfNVk1SzUv+/5urmqpaqlZWraZanmmrE7ut+0rVnkwFAADpxZXoSk00V6KRIvlMdidtHmImSupT1Ruqd1TvqQqqz3LFwrg69MdC9dqqjVWbqjZRbaVanWmukR6a9/uYBgCAT8h9hGhCNOBugF4rCXvLMRv1YnP4pOp51TMKbV9VoHfra9Mtip//3SWKr17jl2yV7o3Uk2lMBQCAEE2IBiEaqE8IsxW4n1FtyWzUmgWyx1QjVA8poH1Z5V7abeA7q3qqekTxLeH4nwvVozOYBgAAIZoQDUI0UJ/gdaE2/ZiJGpurelQ1THWfQtlUR/tqz1AfHsWrU69N2340M4qvRn/CVAAACNGEaBCigboEre1sY4c7s7FUH6muUf1LIew7j3rcMIqvTJ+n2oA2Rnerfz2ZBgAAIZoQDUI0UNtw1TaKF7piYaol/O5SPRzFqzs/qvA1z+N+25sdDlCdq1or5X3tql4+xeENACBEE6JBiAZqE6pu0uZgZmKR7JZtu117gMLWh4H1vYU256hOidL7ysRXVVuot/wyBQAQognRIEQDNQpSe2hzLzPxC/a+5htVlyhgfRT4MdBRm+uj+DVZabSPevxvDnkAACGaEA1CNLC08GSvsXpXtTKz8TN3qfoqWH2comPBrkT3j+KF5ZZJWb/tM5D1+RZ9AAAhGjW3DFMAoB4uIUD/zAuqbRWm9k1TgDYa7xzVmVH8numvU9b3jVQHcfgDAJAOXImu1ERzJRqByWeyXbQZxUz8aFwUPxc8jGdjfzw2VoviW/y3SNGw7Y8m7e2PCXwcAAAuIveVDleiAdQlJDXRZigz8aNbovh9wbcSoGOah6+06aq6PUXDXlf1R7oPAAAhGgAW5WRVh5TPwaeqPygwHqwaxyHxiyA9XZveqqtTNOy/0nkAAMLH7dyVmmhu50Ygklt131e1SvE0/Et1jILiJI6IGh0zF2nTNyXD7aLj4mm6DgBwDbmvdLgSDaC2Lk5xgJ6o6q2QdAABuuY0V7Zi97kpGe4RdBwAgLBxJbpSE82VaAQgn8naQlEvpXT4r6n2ViAsciTU+fi5QpvjAx+m3ca+qo6TiXQcAOAScl/pcCUaQG1cktJx3xrFr64iQNfPiaphgY+xuaoXrQYAgBANIOXymexuUbzicprY64pOUHg+KFkoC/WQrF5+mCr0Z4YPpdsAAISL27krNdHczg2/A7T9wW20qmOKhj1ZtY+C36McASU/nlbS5mXVWgEPcwMdOx/RbQCAK8h9pcOVaAA1sW/KAvQ3qq4E6PLQvH6nzR5R/PxwqLilGwAAQjSANEquQp+doiF/oNpaQe91ul/WIP2GNicFPMT96DIAAIRoAOlkV6E3SslYCxELiFUySF+rzd2BDm/jfCa7CV0GAIAQDSBFFALsYf5+KQrQv1ewG0vnK6qP6vNAx8bVaAAACNEAUqa7alMCNMpFc/6DNocEOrx96TAAAIRoAOny1xSM8QMCdNWDdF6bawMc2gb5THYDOgwAACEaQAro5H8zbboFPsyvVTsSoJ1wmurbAMe1C60FAIAQDSAdjgt8fJNUO7OImBvUhwnanBrg0HaluwAAEKIBBC6fyS6vTe+AhzhHtVfymiW44zbV04GNqYs+T61pLQAAhGgAYbOFnpoFPL5Tkudw4RD1ZH4Uvzt6fkDDaqzanu4CAECIBhC2wwMe260Ka1fSYmeD9Gva3BLYsAjRAAAQogGEKp/JbqtN+0CHZwHtSLrsvPNVswMaz+9oKQAAhGgA4To00HFNVvXMFQvTabHb1KMx2twQ0JA65jPZFeksAACEaACB0Yl+cwuagQ7veIWzj+myNy4NbDxcjQYAgBANIED2Op5WAY7rbgXom2mvP9Svj6KwVuruQlcBACBEAwjPHwMc01eqo2itl0K6pZsQDQAAIRpASPKZbJsovhIdmhNzxcL3dNhL/1HNCmQsm+gz1oSWAgBAiAYQjp1UoZ3kP6wAfTet9ZN6N1GbRwMZTiNVlq4CAECIBhCOPQIbzwzV8bTVe7cHNJZOtBMAAEI0gAAkt5nuHNiwLkpelQS/PaCaQ4gGAACEaAAusUWPWgc0nm+i8F6RlEq5YmGSNs8EMpzN6CgAAIRoAGHYMbDxnKfwNY22BmNEIOP4Fa0EAIAQDSAMOwQ0FruF+5+0NCgPBTKOZfOZ7Iq0EwAAQjQAj+mkflVtNg1oSGfmioU5dDYc6uc72owLZDgb0lEAAAjRAPzWNaCxfKrilVZheiqQcaxLKwEAIEQD8NvvAhrLZVyFDtbTgYxjfVoJAAAhGoDftglkHBNV19POYL1EiAYAAIRoAFWVz2SXjcJ5Hvr6XLEwma4Ga7RqfgDjyNBKAAAI0QD89euAvge4Ch2w5A8kHwcwFFbnBgCAEA3AY5sHMo5XkhWcEbbRAYxhJdoIAAAhGoC/fh3IOG6mlakwJoAxtMlnsk1oJQAAhGgAfuoUwBhsNe7baWUqfBTIOFaglQAAEKIBeCafyTbSpn0AQ3kqVyyMo6Op8Ekg4+CWbgAACNEAPGSv2mkUwDgepJWp8VUg42hLKwEAIEQD8E+HQMZBiE6PUO44aE4rAQAgRAPwTwi3cr+fKxY+pJWEaM80pZUAABCiAfhnnQDGMIo2pkeuWJitzYwAhsLq3AAAEKIBeCgTwBheoI2pMzOAMbSgjQAAEKIBEKKr4UXamDrzAhhDQ9oIAAAhGoB/1vJ8/yep3qONhGgPNaCNAAAQogF4JJ/Jtoz8XyH4jVyxMI9upk4Ir2WbQxsBACBEA/DLKgGM4SPamEohPE9MiAYAgBANwDMrBTAGXm2VMvlM1la1bhzAUKbQTQAACNEA/LJCAGP4gDZy3AIAABCiAVTCsgGMYQxtTJ1VAhkHV6IBACBEA/BMqwDG8A1tTJ1VAxnHZFoJAAAhGoBfQrgSPZY2ps76gYzje1oJAAAhGgAhupIm8norQrTHvqOVAAAQogGgoiGaKUilDgGMYXauWJhEKwEAIEQDQCXNZQpSqVMAY+BWbgAACNEAPNTE8/3nSl7K5DPZtaIwXnH1Ld0EAIAQDcA/LZgCeKZzIOP4lFYCAECIBoBK43bu9OkayDg+ppUAABCiAaDSeM9u+nQjRAMAAEI0AABLkc9k19BmY0I0AAAgRAMAsHS7BzQWQjQAAIRoAAAI0TUwRzWGdgIAQIgGgEqbzxSkQz6Ttdda5QIZzru5YmEWXQUAgBANAJU2kSlIjf1UjQIZy+u0EwAAQjQAAOV0YEBjIUQDAECIBgCgPPKZbCdtOhOiAQAAIRpAtc1lCuCBYwMbzxu0FAAAQjQAP032fP+b0cKw5TPZ5bXpHdCQ3s4VCzzLDwAAIRoACNEoi+NULQIaz5O0FAAAQjQAACWXz2RbaXN8YMMiRAMAQIgG4LGZTAEcZs9CLx/YmEbRVgAACNEA/DWdKYCL8plsW21OC2xY9jz0WLoLAAAhGgCAUvuLarnAxvQYbQUAgBANAEBJ5TPZjDanBDi0++kuAACEaAB+m+H5/jehhUG6NApv5fUJqqdpLQAAhGgAhOhqakELw5LPZHfUZu8Ah/ZwrliYQ4cBACBEAwBQqgBtfxQZEujwHqDDAAAQogEAKKXzVZkAxzVL9RDtBQCAEA3Af9OYArggn8l20ebkQIc3IlcsTKTLAAAQogH4bxZTAAcCdGttblY1CHSIw+gyAACEaAAASuWaKMzbuI1dgR5BiwEAIEQDAFBv+Uz2cG32D3iId+WKhZl0GgAAQjSAMEzxfP95xZXfAbqTNlcGPsxb6DQAAIRoAOHw/b21TWihtwF6eW3uVTULeJhv54qFp+k2AACEaAAA6hOgG2tzp2rtwIc6mG4DAECIBgCgvq5W/T7wMdqjErfSagAACNEAwjKZKUAl5TPZv2hzRAqGOixXLEyi4wAAEKIBhGUuU4AKBugDtLk4JcO9io4DAECIBgCgrgG6uzY3pGS4D+aKhbfpOgAAhGgAcE0jpsCLAL2dNveoGqdkyAPpOgAAhGgAYZro+f63ooXOB+jOUfwqq+YpGfKzuWLhWToPAAAhGkCY5jMFKHOAflTVOkXD5io0AACEaAAB83314Ca00NkAvU0KA/QrqhF0HwAAQjSAcM3zfP+b00InA/SO2vw3ZQHanJkrFri7AwAAQjSAgPGeaJQ6QPfU5oEofX/gGKUAPZIjAAAAQjSAgOmk3/v3RCu0taCTzvTiJG1uj9KzCvfCzuAIAAAgXXhNDJBeU1UtPd5/ey56Gm2sanhuqM2lqpNSOgUPsCI3AADpw5VoIL1meb7/PBdd3QDdRpv7UxygZ6v+zJEAAAAhGkB6+L5Cd1NaWLUAvb42L6h2TvE0XJErFj7gaAAAgBANID2me77/XImuToDOafOSqkOKp2Gs6nyOBgAA0olnooH0mun5/nMlurLh2f7oerrq3Ig/wJ6eKxYmclQAAECIBpAuEzzff65EVy5Ar6DNbartmY3IFhK7nmkAAIAQDSB9fF9YjCvRlQnQ20bx66tWZzZ+/Mz0yRUL85kKAAAI0QDSx/fXQ3Elurzh2d75fI6qX8Tt2wv8TQH6HaYBAABCNIB0muz5/nMlunwBeiNthql+zWz85H3VAKYBAAAQooH08n1hsWa0sOTh2a44H6/6W8QfKRY2V3VwrliYyVQAAABCNJBeUwjRWChAd9Tmn6ptmI1fuEgB+kWmAQAAEKKBdPP9mWhCdGnCc5Mofu7ZXl/VhBn5hddV5zENAACAEA2A27kJ0N20uVrVkdlYpBmqA3PFwmymAgAAEKIBTCREpzY82+uq/q7aj9lYopMUoN9mGgAAACEagJlBiE5deLbXgp2kOlPVghlZojsUoIcyDQAAgBANgBCdvvBsq27vH8WvaFqTGVmqj1V9mAYAAECIBrAwbudOR4DeUZuLVJsxGzVif1zqmSsWJjEVAACAEA1gYSwsFnZ47qZNf1VXZqNWjlaAfo1pAAAAhGgA/x+vuAo3PNvrqrZnNmrtKgXom5gGAABAiAawKJMJ0cEE5wbadI/iBcO2YUbq5BnVKUwDAAAgRANYHG7n9j88N43iBcNOVmU5pOusqNqb90GXX9fhA9fTZjfVb1TLqewYtufPP1KNUj08qlffecxUsP23twJsrWofxYscrqZqrbLFD9uo5qsmJP/r41VfqL5Sval6TcfGLGYRgAsazJ8/n1moxEQ3aMAkwLUAltHmE4+HMFKhp3tKe2fveT5CdbRqJY7merEAt7WOpXeYirIFpw21uVj1B1XLpfyvW4C21dGvUWAaxOx523MLxTup9oziRQ0zSUhuWM//9BzVD6oxqldUd+s4GcWMV7XX9jvI/hjSitmoiK+tdNzX6ZE8ch8hmhAN1D+IraDNWI+HMErBp1uK+rVMEkLs1Us9SnAyiiiaq9pFx9FIpqIsJ9f2x55/qzrX8T9hJ4nn6WTxb8ymF/3OaXOM6rdR/Me9Sp342B9e7Gp1XnW1jpeX6UZZ+7ytNqeptlK1i+K7CFB5dlfG56rHVP113H9LiCZEE6KByoSyZaP4KpyvXlT42SoFfdpAmz+pDlatzpFbUkfoGLqOaSjLiXY/bS4o0Qm23THzW50kfs3MOtfnvaL4cZItVU0c2S3748vTqr/pmHmCLpWs1ydoc5ZqBWbDSW+p+uiYf5EQTYgmRAPlD2g+fwG8qQDUKdC+2FUcOzk9IIqv6qD0+uv4OZdpKMvJtl0Z+UOJ/7N21WUHbt11or/2XPtA1a6R+2tT2B+K71L11bEzju7Vqd+23sbDqjWYDS88qtptcesHkPsI0YRooDRhzf5i39zT3X9fIahDQL2wRXbsNu19k+DMl0b5DNWxcxTTUJYTbntOdfMy/efttt3uOjl8jJmuSm9tDYq/qzp6uPt2svuS6lgdP6/SzRr3/KSk59yy7ZeJqm10rL9DiCZEE6KB8gQ3W6Clrae7/6mCUMbjubcrOPZsmV2xs5PTX3FEVoQ9o7ufjp25TEXJT7jt2fIdyvxjbGGpjXVy+AEzXrG+2l0xV6tWCWRIH6oO0jH0At1dYt8v0+ZEZsJb9raJbjrOnyNEE6IJ0UDpg1xRm7U93f1vFYRW8Wy+19Jm7yh+xY+9z7kpR2FFPaDaR8cNr8kp/Qn3qdpcWqEfZwsirsKrsMre0y7a3KpaK9Ahvq3ad1FX6+j9QHvU5WxmIoggvamO8fcI0YRoQjRQ2lBnX6ztPd39iQpDbT2Y40ZR/HyzLcrC883VYwsM7apjZhpTUfITbltoyBb9alTBHztYJ4bHMPtl6eeq2vwnqvuq6j6xk+CHkjDNd0Pc/521eTDikaJQ2PvWV9bxPYcQXVo84wCk2wyP993pBW0Unhuo9tM/7bbTOwjQBOiA3V3hAG366GSf99KWPkCdH8WvzemckiFbUNzFgobGfgT9H9gk+TwToMPRLukpCNEASmiix/vu7K3QCs8bavOM6nbVOhxmBOiAT7pX1qZLFX60vSf9GjpQsj6uoyrqn2dG6XwHvf0+uVZz8JqqbYoPhWGRv4uNYvF213HdgWkgRAMonZk+73yyOJdr+3SkNq9H8TPPIECHbkBUvatWezL9JQnQtgKzLba1NrMRbab6WnOyTwqPA7tiuTeHQJDsO/pGpoEQDaB0fA8XzoRoheeGKlvBdoiqBYdW1T1GgK6I3av4s1vpxH9TWlDn0LRM8k7vQVE6rz4v6ffKXZqb61I27ovIBUHrzCMwhGgApTOZEF2SAG3Pkd2jYqEjN9xDgK5ICLPP34pV3o0+dKJOvbPFw76M4lfsYdEO0zy9naLgsQ8tD5pdjf4L00CIBlAaMz3f/6qHaLsCHcXPke3O4eSEm1T78hqriujiwD78mjbUOkDbomFjonDe+1xOHVWfas7WDPyYsBX229Hu4HGeQogGUCJTCNH1Zu/G7cmh5IRLVIcqQM9lKirChRWcV6cNtQpL9rq95yIWj6oNC5cfau62CHiMPAudDusxBYRoAKUxlRBdd/lMtpc2J3EYVd0864PC819VvASzsuEi1d8BngXoQ6P4VTec+9Werd79rOYwF+j4OtPiVGjJFBCiAZQGt3PXPUDbFbChHEJVZ+86/6PC8+VMRcUt68A+NKENNQ7QtlAW7/+tu8aqkYEG6RVoL7kPTCaAmptEiK6zwY6EiDT7TvV7Bei7mApgsQG6FwG6ZBomQTq0W7u5QgkQogHUwnRCdO3lM1m7ErEbh09VvaPqrAD9PFMBLDZA7xDFCx8SoEsbpO3W7g4BjWkSbQVqpxFTANQ4ONmrXNZQtUn+R3NUY1Vf6kTe1wW6uJ27bgbwiaiqEare+txx4gcsPkBbyHsw4oJJOdit3S9pjjOjevUdH8B4irQ0FVh0kxANlC0o21/r11ZtHMWvtliwtZORxd26O1//dx9q+6LqYdVDOrmf6MmQJxCia32M/C5iEZZqukh1pj5j85gKYLEB2t5t/FIS9lAedk7wRhKkff8+ejZikcw0mMgUEKKBUoShhklItkD0myh+3+hGUe2fDbLgvWFSB6qm6799p7aX60T/dcengSvRtXcUn56qsJXkD9Nn6g6mAliqFyPWbKgEe3/0/apdPR+HjWF+xG3/oRvNFJQOt/ggTaG5lWoH1Xmqx6L4KuybqmtVfZIgXYrFNez9mwerXtPPuUu1jsPT4vsz0c0rfAzZ8cH7NCvvgyh+/pkADSxF1+EDr4/iO6hQGbtozk/2eQCjevWdpc0XtDJ4w5mC0uFKNEIOzfZeR7v1dic7r1B1iuIFQSppH/v52pfTtb3SwXfY+v5MadMK/7w/VOFnpt2/VYfoszOZqQCWGqBtIbFDmYmKu0Rz/6DC6Icej8H++NKfVgbL1vH5J9NAiAYWF5zt1ipbNXln1XaqFg7sll29tHfYdtH+uRYGZnje8uYV/nk78imrGLsycqo+L1cxFUCNArT9vvsPM1EV9gf6J1WrezwGWzCzX8QfikP14I/P7v/xNGaiRLidGyEE581V56rs+ePPVFerdnEkQC/MbgP+r/ZzeYf2aZrn7a/0L/st+MRVxEeqrQnQQK3c7+DvvTRZrevwgVf6uvMKWHalchBtDJKtyn0Y00CIBiw4d0iebbZnJV9RnR3Ft2u7bkvV49rv1o7sj++3yDav4DFnd+5k+fSV3XWqzRSgX2MqgJpReLO7r3LMRNUdo15s4HGQtivR39DG4FwayKvYnMLt3PApOK+mTe+kNvN4KJuqbMGxXRQU5lR5X3xfnbuSV6JXiqr3Xuo0GBfFq2/fz1QAtTaMKXCCXZyyd3O393gM26reIyME4x0F6L5MQ3k+7IDLwbmhqofqEf0/P1dd4nmAXsAWfzmr2juhwDLF83lsU8GftSqfyLIZocoSoIHa6zp84MXaLMdMOGND9aS3rzuvwDVGm71U82il976P4te4ghCNFIXnFZMVrT+J4oVSdgzweD1DY9zSgf2Y6vEcVvL5P965Wp5j72jVbgrQ3zIdQK0DdCttTmYmnDPY551XkH5Am55R/Cwt/DRW1UG9nMJUEKKRjvC8merGKL7qbCtFrhnwcG01z8s13gZV3g+fn4tuzqfGWyNVHRWehzj46jfAF/bKGm67dU/rrsMHnul5kL4nihfT/IF2euc51Rrq4TimghCNsINzg+SW7af1/7TFhP4UpecVC1up9iRE1/1EpYI/i6BXGra4ycEKzt1VnzEdQN0opLXTZl9mwln91COvz7MVwuytJ7YeyK0Rt3f7wO7u6qO+/VY1i+koL/56iaqGZ232UJ0T+bGydrmcqrqHEF0nLSv4s77jU1tvd6qOV3hmLoH6s1uGfQ5pM6L4j2pfqOyW00nJ/7xtFP+B1N65bM96N/F0fPa4kT2WdoHnQdoWQD2o6/CBf06OuZ0i7gJzjT0OZa93HfDju6BBiAbhOSW20ZxsomAxmhBda5X8Rf4Fh2qdfaw6Qcf4CKYCqD8FGjt/29Oz3bbna+3K5n2qITW91VRjXU+bw1W7qzZSNfBozCf7HqIXCtP2x8+9k55sp83ByTncKlF17h5s48CxYG84mV7hn2kh2f7oZHdyPa66Tr35nG9FQjTCD9C7anM+4fkX7Ja8aoXoCR7PW6tK/SAFwMk6fu0kYiUO1xqzK00XqS7W/M1gOoCSuVDV2JN9tbD8N9VlyVXN2oY3Wy3a3l/cL1lIzZ41PraS3//10E773FNjuCukg0/jeUKbJ6q5D5pXe1a7bZWnYlDybm0QooGyhedtkl+i2zIbi2R/XKjWK698vhJd6RWzX0p6haWz1V1PVHj+hKkASu5QD/bRQs6xChnDSxje7AqcvfO2r0LUSckfE1y/tdjuuruLQxYICwuLodzheQ3VbfrnswToJdpU89SySj/b5xDdosI/73kO1aV6V7WLwvPuBGig9BQeu2izvMO7aIswXqnA266UAXoRgfqyKL4S+R/HW9ZRPeMOJoAQDdQoPDdVnaF/fqDqxYzU6LNYrVvcfQ7RzSr88x7gUF0seyflMapNFZ4fYjqAsjnH4X2bqOqsgHtCJX6YrUCs2kv/7BHFz6e6yJ7bPY/DFiBEA0sL0N21KUTxYhqs4FhzaxGi63S8VeyZqGTxtzEcqj+z4Lnn9TU/g1VzmBKgrFy9q+tD1UoKtS9X+gfrZ96X/A793tG56cFhCxCigcWFmZVUduvWw3ZCzYzU2sqE6Dqp9B9qbuZQ/ZGttPtP1YYKzqerJjElQHl1HT7Qrrq6+MonWy+iQzXfTZusHp1Rferi7/dklXEAhGjgZwH6T1H8LOQfmY06q9YqkxM9n7dKr9A6JIqvvqaVPe84zE6YFZz7qHi1BlA5xzi4T+8owHZ24f20ycJj2Sh+vMQ1J3H4AoRoYEF4XkVl7369UdWOGamXap2A+H4FsaIhWqFxbHK8pzE8320nqJqDA1Uf8ZEFKm4Lx/bHrv5u5tIOJUG6Y1T59/cuzc4cvgAhGrAAbQuGvc0vhpIZR4iukzZV+Jn9I/9vg68pu217WBKee6re4aMKVF7X4QPX1Ka1Y98N21TzFu4lBGn7fbpHFP/xzxUZjmKAEI10h+dlVfZcqL26iqvPpfNtlX6u77dzV/ykUkHSrr6cG/jxOFt1bRTftn0g4Rmouj85tj9/Vlh1dqFF7dtj2tzi0jl31+EDu3MYA4RopDNA261kr6sOYjZKrlohhWei68beUfpUgMfheNUA1VoKzkdy2zbgDJcC2CfJe5pdd2jk1t1W+3IYA4RopC9AH6/NsypWmCw9e3brA0K0PyFa4dJuZbQ/Jn0fyDFor6c5TrWmxnam6hs+loBTOji0L3v5MGHJYmdHO7RL23AYA4RopCc8t1Ldrn9eoWrMjJTF40koI0R7EqKTIG2vUrHn7mZ6Onf2vOD9UXyFq73Gc7VqGh9HwEnLObIfbymcvuHLpGlf7dGzcY7szhocxgAhGukI0Pa+Z3v/437MRlk9VMUgaK9rmuXx3FV1oR3N37PJ52O2R3Nmz99fpFpX+7+HaqRqPh9DwE1dhw/spE0DR3bnaA+n8HxH9qOletmIIxogRCPsAP2HJEBvxGyUlV3FvL3K+zCBEF2vIH1fFN/eON3hebLbGh9U7alaQ/t8uqrIxw/wwh8c2Y8fRvXq+5yH83eVao4j+8It3QAhGgEHaHv+eWTkzu1jIbtNYWZ8lffB51u6W7mwE+qhBdSuqs8dm5+3VH9OgvNuqntVc/jYAV7ZxJH9+I+Pk5c8G/2CI7uzBYcz4D9uKcH/D88NtfmH6gRmoyLsOegLHdgPQnRpgvTL+gxtrn9er9qtirvyvuou1Z3ap9F8zADvubKg5+Uez+Fw1bYO7MfGHM4AIRphBegW2vxL1YPZqJihjrxCiBBduiA9Vpvd9Xmy56QHqVYlOAOop5Ud2IdZo3r1fcvjObxBdbUD+7EWhzPgP27nxoIA3Vab/xKgK+pLVT9H9sXnEN3axZ1SkL0jiq8enaIaW4YfYbcnPp8cQ1n9vA6qswjQQJBc+J773OcJHNWrry2i6cI7o1fgcAb8x5VoWIC2K2WP2ok4s1Exdhv3AQo8kxzZH59DdBtXd0z9tYXGBukzZlc/7A9Uh6m6qZrU8T9pr9T6b/J5fUz//R/4KAGp0MKBffg4gHn8Jqr+HyTacDgDhGj4H6DtFVaPRO48b5UWpygAPenQ/nA7d3nDtL1C7E4rfeaWtf+RamuVvbamQxTfqtl0of8Tu8r8bRKaX1e9qHpG/50xfHSAVGrowD68HcA82nfohlXeh2YczgAhGv4HaAtyqzMbFTVAYegKx/aJEF25QD1Zm3uTWvjzuOxCJ8pTWEEbwEIaO7AP3wUwjy78ruPcGyBEgwCNWjpD4ehCB/fL5/dEtwrhwEjCNQC4anwAYyBEA+CDDAK0R+zZ58MUlO7mxIIQDQAemhDAGFhHAkBJsDp3+gL0Gto8ToCuKFsI6lcOB2jfQ7Qd1yzUAgAAgIrgSnS6AvRKUXwFek1moyLsVUNnKzzf68G+TvR8rlsFMAYAAAAQouFQgLYrdfmIVbjLbarqQdUNUfwKovme7HcIIRoAAAAgRKMkAdreSXt/xHugy6GoelP1iuo51fPJu4F9Q4gGAAAACNFQgG6gzTBVF2ajXuwK86tRfIv2giooME8KZHy+h+hlOUQBAABAiEYpXKLqyTTU2reqUapnk3oz8Pf2+h6i23LIAgAAgBCNeslnsodpcyozUSN2C7atoj1C9bgC84dpGrzGO1PHywz9s5mnQ+B2bgAAABCiUa8AbbdvD2Ymlui7KH5W/D6bMk+fZS6liYRoAAAAgBCdxgC9jjb3qBozG79gzzD/W3WrapSC8zym5GchemVCNAAAAECITlOAbpaExOWZjZ/Ya6YeUd2sup8rzksM0b4iRAMAAIAQjTq5RrUZ0/Aju+ps72u+UsH5Y6Yj6BDNwmIAAAAgRKN28pnsodocwkxEY1RXqG5UeJ7MdKQiRHMlGgAAAIRo1CpAZ6P4KnSava/qr7qTZ50J0QAAAAAhGosL0PYc9HBV05ROgV15vkA1LPB3OROiCdEAAAAgRKMELlVlUzjusarzVUMVnmdxGKQ6RC9L+wAAAECIxlLlM9ldtDk2ZcOeG8W3rp+t8DyBo4AQLW1oHwAAAAjRWFqAthWJ/5myYb+qOkLh+XWOgJLz+Q8SXIkGAABARSzDFHjtMtWqKRnrNNWpqs4E6LLhmWgAAABgKbgS7ankNu6DUzLcZ1QHKTx/QucJ0YRoAAAAVBNXov0M0K21uTYFQ7Vnn89SdSNAE6KXooU+Fw1oIQAAAMqNK9F+Ole1WuBj/Fi1v8LzC7SbEF1DtrgYC80BAACgrLgS7Zl8JvsrbY4PfJj3qX5NgCZE1xKLiwEAAIAQjZ8FaLtddbCqYcDDtNu391SAnkjHK873q7g8Fw0AAICy43Zuv9hCYlsHOrapqgMUnu+lzdWhuZ+dz2Sn65/NCdEAAAAAIdprCjcWEC4MdHjfqHZRiHuNTlfdRI9DNLdzAwAAoOy4ndsffaMw3wn9vmprArRTIdpXrWkfAAAAyo0r0R7IZ7JraXNqgEN7U7W9AvRYukyIJkQDAADAB1yJ9sMAVbPAxvSSqisBmhBdQjwTDQAAAEJ02uUz2Y7a7B9ggN6BFbgJ0YRoAAAAEKJRanYVukFA43mVAE2IJkQDAACAEI2Sy2eym2vTI6Ah2SJiOxGgCdFlwjPRAAAAIESn3ICAxvJVxCJihGhCNAAAAAjRKId8JruZNjsGMpwpUfwe6M/pLCG6jLidGwAAAIToFOsbyDjmqfZTgH6DlhKiCdEAAADwHe+JdlA+k91Am56BDOd0BeiH6Ko3JhCig/5use/85VQtk//RdNX3+ozOYXYAAAAI0T47LQpjRe47VRfTTq/wTHRYoXltbXZSdVPZIyLrLuJ7f47+9z6L4pXzn1U9qFA9htkDAAAgRPty0ruiNgcEMJSPVIfrZHw+XSVEV0gb2vfT1eb9VMeotqnh74F1k7I7YC7Tf8MC9bWqYfoMT2NWAQAA/odnot1zhKqp52OYqdpLJ9+Taad3uJ3b7wD9xyj+A9awGgboxbHX6w1VjdF/85gkmAMAAIAQ7dwJsJ2oHhPAUPoqQI+mo15iYTE/vzvWUj2pfw5XrV3C//QqqqtVL+i/vykfDwAAAEK0a/ZSre75GB5TXU4rCdFV0ExBr2EKA/Ru2tjq913L+GPsyvTL+lmH8hEBAACEaLjkKM/3327f5jlojyWrNPv8DOyyKQvQfbS5N4pX3C63Jqrr9TMv5JMCAAAI0XDhZNgW9dnO82GcphD2Gd30HouL+fGdcWQUP7dc6e/xfvrZA/mYAAAAQjSq7RDP999ejTOENhKiqywVz0UrxPbQ5poq7sJp2ocT+KgAAABCNKp1QtzQ8xA9V3Ust3ETognRFfm+WEebGx34/h6kfdmWjwsAACBEoxq2j/xeUOwaBeg3aSMhmhBd9gDdQJtbVG0d+f1xi/apFR8ZAABAiEal7e/xvo9XnU0LCdGOCH1hsQNVLl39taviF/CRAQAAhGhUTD6TbarN7h4P4ZxcsTCBThKiHRHswmL6rmjiaGA9Xvu2OR8bAABAiEal7KJq7em+vx+xmBgh2i0h31rcW7Wmo79HhqTxHd0AAIAQjerY1+N975+8VxiEaEJ0+R3p8L79RnU0Hx0AAECIRlnlM9lm2uzq6e6/q7qTLhKiHRPkM9H6rlhfm60c380LtZ+r8fEBAACEaJTT71UtPd33AbliYR4tJEQ7JtQr0d092Ef7A8ZlfHwAAAAhGuXk61Xoz1V30L5g+bxQXNtAe/J7T/azZz6T3ZmPEAAAIESjXHbzdL8v51nooHEl2j2berSvVylIt+BjBAAACNEoKZ1kdtJmDQ93fYrqWjoYNJ+vRAcXopNXW63j0S7bvp7FxwgAABCiUWrdPd3vm3LFwmTaFzSuRLulnYff1X9W+N+YjxIAACBEo5S283S/r6J1hGhCdEW18XCfG6mGKkg34OMEAAAI0ai35PbM33m460/kioX36SAh2mEhLiw209P9/q3qMD5OAACAEI1S6Kxq7uF+30LrwpcrFuZqM9XT3Q/xSvRsj/f94nwmuyKfKgAAQIhGvXOKh/tsoepuWpcavl6NDjFEf6vydTX85VSX8nECAACEaNTXNh7u8wO5YmEKrSNEO65pPpNtFFIjktfJferxEA5ST7bjIwUAAAjRqBOdTNqcd/Zw17kKTYj2RYhXo1/xfP8H67uvKR8rAABAiEZdtFe19myf7Vbuh2gdIdoTIS4u9lQA33un8bECAACEaNSFj1ehR+aKhem0LlUm8L3mlAdU8z0fw+n5THZ9PloAAIAQjdraysN9HkHbUsfnK9GtQ2tGrlj4XJtnPB+G3c49hI8WAAAgRKO2Onm4z4/QttTx+c6DhoH25KoQ/h6Qz2R78/ECAACEaNSITh4baJP1bLffyhULX9G91PH5du5lA+2JLe43JoBxDNJ34XJ8xAAAACEaNZFRtfRsn/9L21Jppsf7HuSV6FyxME+b/gEMZSXVRXzEAAAAIRo1sYmH+/wEbUsln2/nXjbgvtymGh3AOPrkM9mt+ZgBAABCNEIL0Xbl62nalkqTmQL3JFejzwhgKPZoy1AF6UZ0FQAAEKKxJO0929/3dNI+kbal0lymwNkgba+7ejaAodgfFU+mowAAgBCNJVnXs/19lZYBTuoXyDj65zPZtWknAAAgRGNx1vFsf1+hZYB7csWCPWbxUABDaaG6ko4CAABCNH4hn8k202Y1z3b7TToHOOt01fwAxrGbvh/3pJ0AAIAQjf9vHQ/3+R3aBrgpVyzYH7mGBzKcKxSkl6WrAACAEI2F+fbc3/c6SR9L2wCnnaOaHcA41lCdRzsBAAAhGgtb2bP9fZeW8d3gqalpaVKuWPhIm+sCGc7x+Uz213z0AAAAJ8rwNUQXaVmqtfZ436elrFfnBzLmhqohCtL8XgIAAIRo/GhFz/b3U1qWak083vepaWpUrlj4WpvLAxnOFqpj+PgBAABCNIxvK3MXaVmqtfB43yemsF8XqyYEMpYB+Ux2VT6CAACAEA3frkR/RctSraXH+z41bc3KFQsWoAcGMhx7lOByPoIAAIAQDd9e3zKOlqXa8h7v+7SU9uwK1deBjKVnPpPtzscQAAAQotPNtyt739GyVFvJ1x3PFQtT0tgwjXu6NucGNKSrFaSb81EEAACE6PTybbXj72lZqvl6JXpiyvt2vWpMIGNZV3UWH0UAAECITi+vbufOFQuTaRkh2kOpvoNCn9s52pwR0JD+nM9kO/JxBAAAhOh08ul27mm0K/VW9nS/x9K66E7VG4GMpbFqqIJ0A9oKAAAI0enT1KN9nUm70kuBpU3k3+MHC3yT9v7lioX52vQLaEjbqg7hkwkAAAjRcNkkpiDV1vZ431kQLw7Sj2gzKqAhXZLPZFegswAAgBANVzVlClItQ4gOQkhXo9upLqWlAACAEA1X8VoZQrSvvqF9sVyx8Lw29wU0pIPzmWw3OgsAAAjRAFyzLiE6GLZS9/yAxjNYQZo7ZQAAACEazmnMFKTaxh7v+8e0739yxcLb2twa0JA6qP5CZwEAACE6HWZ5tK8teKVMqmUJ0UE5RzU7oPGcqe+n9WgrAAAgRIdvumf724aWpY/CiS3gtIqnuz8uVyxMpos/pzkpajM4oCE1DWw8AACAEI3FmOLZ/ralZam0icf7zlXoxRugmhrQeLbPZ7K9aCsAACBEh22WZ/u7Ki1LpU4e7/sY2rdouWLBXv31j8CGNUhBmj/2AQAAQnTAJhGi4YGtPN53rkQvmb1n+fuAxrOy6kLaCgAACNGEaFesQstSaWuP9/0j2rd4uWJhUoCh86h8JrsV3QUAAIToMH3n2f6uRcvSRWHE7j5Y2+MhjKaLS2ULcn0e0HjsLQJDdOw2orUAAIAQHZ5xnu3v2rQsdX7r8b7PVb1NC5csVyzYWwLODWxYv1KdRHcBAAAhmhBdbe1pWep09XjfP1BAnEELa+Rm1XuBjal/PpPl7hkAAECIDsw3nu1vB52Ucnyky04e7/ubtK9mcsXCHG3ODGxYLVVX0l0AAECIDotvq+I2V2VoWzrkM9l1tVnP4yG8RRdr5R7VK4GNaXcdxz1oLQAAIESH4wsP93kz2pYaO3m+/2/QwprLFQvztekX4NCuVJBuRYcBAAAhmhBdLVvQNkI0ITrYIP1fbfKBDWuNKLyF0wAAACE6tb5UzfNsn7embeHLZ7JttNne4yF8rkD4NZ2skxCvRp+oY7oTrQUAAIRoz+kkf5Y2Rc92u7NORpvSveDZc6RNPN7/52lhnb+XXo7i56ND0lA1lIURAQAAIToMH3i2vxaguaU7fL083/8XaGG92ErdcwMb05aqo2gtAAAgRPvvfQ/3uQttC1c+k22nTc7zYTxNJ+suVyy8G8Xvjg7NRTq+V6HDAACAEO23dzzc5+60LWgHqBp5vP+TVK/TxnqzxbhmBDam1qrLaC0AACBE++09D/d5m3wm25bWBcv3W16fzRULc2lj/WgOP9NmcIBD20/fXzvQYQAAQIj211se7rMt0sPV6AApXHTTZiPPh/EknSyZC6P4yn5oButYb057AQAAIdpDuWJhgjafeLjrvehekI4OYAyP0saSfT+N0+bvAQ5tXdUZdBgAABCi/fWqh/u8U7IAFQKhfq6pzZ6eD+Nb1Zt0s6T+oRob4Lj+qmO+I+0FAACEaD+94uE+N1b1pHVBOTXpq88ezRUL82ll6Wg+p2gzIMCh2bFut3U3oMsAAIAQ7R9f32nbm9aFQUFiVW2ODGAoI+hmWdgCY58GOC57Xd/BtBcAABCi/WNXon1cTbiLwld72heEE1XNPB/DHNUjtLL0csXCLG3OCXR4l+p7bAW6DNRJkwDGwCKDAAjRnp6gTo38fa/tUXTQbwoQK2tzXABDeVKfpYl0tGxujfx8r/3SLK+6mPYCdf78+M6FV3byGBJAiEYdjfJ0vw9VCGtF+7x2gaplAOO4j1aWT65YmBeFu6L1Ifoe60KX4Zk5DuzDKgHM43IO7MNMDmeAEI26edrT/W6tOpb2+UnBoZM2hwUwFPsr/j10tOxB+t7I3zUclmaIPg9N6DI8Ms+BfVgvgHlc04F9mMPhDBCiUTePq2Z7uu8n6eSTZ4r8dJkqhNWJn1LA+4p2VkS/QMe1keovtBceme7APmwYwDyu4cA+TOJwBgjRqAMFgMnaPOPp7tvtXEfSRb/kM9n9tekayHBup6MV+656UpuRgQ7vTH0u1qPL8MRUB/Zh7QDmsZ0D+zCBwxkgRKPufH49zxk6+VyOFnoToFfU5opAhmO3wd1NVysq1KvRtkL9NbQXnhjvwD606Tp8YDtfJ1D7ntOmoQO7wp1UACEa9fCQx/tur4jpTwu9YUGhXSBjGZErFsbR0srRfNvbBO4IdHg75DPZP9JleKDoyH74fCfanxzZj/c4nAFCNOp+YvquNp96PIRjdfLZkU66TT3qqc0+AQ3pZrpaFWdGfr7fviYG6XPShhbDcW8TROttV0f241UOZ4AQjfrx+ZZuuyXqep18NqSNzgbotbQZGtCQvvf8M+OtXLHwkX3eAx2erfNwEV2G4553ZD828PGWbu3zVpEb74g2z3A4A4Ro1I/vr+mxX0qn0UYnA7S9vsduwQ3p2fUbFOZm0d2qOVc1I9CxHaXPzJa0GC5/rTuyH/aGh6s8nL/LHdmPWaN69eWRJIAQjXp6UvWd52M4J3n/MNzy9yj+I0dIrqWt1ZO8VuyKQIdnwWCovssa0Wm4SMHL/oA13ZHd6dl1+MBmvsyd9tVezeXKH8nGcjQDhGjU/6TUnjG80/Nh2BXPu1mt2x3qxeHaHBfasJJbilFdA1UTAx2b/THwBFoMhxUd2Q/7Y9OtHs2bS69FfIvDGCBEozTuDGAM9q7V23g+2okAba/wCPG1PVfQ3erLFQs/aHNxwEM8V5+hNek0HPWUQ/uyd9fhA7OuT5j20RbX3MyhXbqfwxggRKM0bIGJzwIYR3fVhbSzqgH6V1H8nH3jwIY2RvUgHXaGPVv4TaBja6W6khbDUcMd2hd7BOK/CqnOnkdq31prc5Nju3U7hzFAiEYJ5IqF+VE4r+35q4LcSXS1KgF6fW1GqloHOLzL9DmZR5ed+c6aqs35AQ9xD32edqfTcM2oXn1HaTPHoV1aWXWfw1NmFylaOLQ/49XDCRzJACEapXODan4gY7F3rh5ISyseoJ9MTmhCMz5y70oCoui6KL5DIFRX6XPVkjbDQe86tj+7dh0+sL9rk6R9srdTbOJgqAdAiEap5IqFojaPBzQke3/0H+lsRQP06oEO8Up9PqbQaee+s+xVY+cEPER7LvpcOg0H3eXgPp2j0HqMQwHaHsnY18F5GszhCxCiwZfrktgzuf9SwDuUtpY1QNtqws8HHKDttmEWFHOXPZ/5ZsDjOylZZwBwib2+0MU7165WeK36H9a0D/Z4nItvp5gxqlffRzh8AUI0Ss+eK/oqsGPLrkjzypjyBOgdtLHn41YIeJhX5YqF8XTbTclz6mcEPER724C9O5rfk3CGgtg0bT50dPf6K8RW5Uq5vbda9YL+eZCjc8Ot3AAhGmU6IbXFQoYGOLTLdRI6RNWYLpcsQB+tzYgozEXEFrCr0JfSbee/t0YEfnLYWXUknYZjhji8b/sozH6p2qCCAXobbb5NPq+uOp/DFiBEo3zs/b4zAhyXnYSOVPhrR4vrFZ6bq65LjpNGgQ/37wpo4+i6F/oFPr6L9LlbmTbDIfaaudkO799qqvcVbm9Rle13lb3CSvWY/vls5PYflb8f1avvUxy2ACEaZZKEhhsDHd52qtd1Mrotna5TgN5Ym5dUh6VguPYKkEF03ZvvLbsSHfJ7vNuo/kGn4QoFMnuU4jHHd9PeI21v6piioDvUbrcuYXhup/p3FL+94Q8etOwmjlqAEI3ys0VD5gY6trXs978CYX9VQ1pd4wB9hDYvq7IpGfL5Cma8S9Mv9mz0/IDH11ufwy1oMxziy3ojTVV9VFMVfF9RHViXq9PJM88nqOwVX3bBYa8oXrfAdfao3pkcrkB4GjEFblF4GKOTtWH658GBDtH+cGMreHa3cKjxjqbriw3P60bxqu07pGjY9u7hq+i+d99bb+l4vU3/3D/gYdofOLvQbbhgVK++YxQo39I/N/Xod//mqltUN2vfbSFVC8RvqGwcn6nGJuelK0bxH93tf9/+eNwx+Z/5aIR6NYMjFiBEozIuUB0Q+fFX1rqyBUBe04m3nZiep5PwabT9p/Bsn8tTVP1VzVM2/L8k7yCGf+yPY/Zu1lAXEfydPptb6fh8gVbDEbbI5LMe7rfd6r16Un8IuD92dw4LEwKB4nZuB+kk7aMo/mtt6CwsnqZ6Wyen+/MqmR8D9K5R/Jf5v6UwQD+uY/8/fAN4+71ldxFcG/gweWUfnDGqV9/ntHmHmXDWo+rRt0wDQIhGZZ0VhblS96JkVHYL+6sKkd1TGp47q2z1zgdUG6dwCmyl2WP52HtvQBS/nixUe+tz2po2wyGHMQVOssXfejMNACEaFZYrFr6M0rcibCfVwzpJfU7VIw1XpjXGripb2dhuEf1dig/5S3XMv8cn3/vvra+j+PU7oWqi2olOwxWjevW13x3PMxPOuVW9Gc80AIRoVMfFqu9SOO6tVXZb7zu2+JiqZWDBuZFqX5WtuP2kapeUH+fFKF4HAGG4JIpfPROqXWgxHLNnFF/5hBumqw5nGgBCNKokVyxM1KZfiqegfRQ/Y/mNAuc/bVEfz8NzR9Wl+ucXqjtUv+Eo/9HhLCwX1PeWvZ5sYMBD3JIuwyXJc7fXMBPOOEE9mcM0AIRoVNdNqpdSPgetovivus8rhL6nGqDaXNXAg+C8vuoUlfXwbdWpqpU5rH9ynUJXnmkIjr2m7KtAx9Zen+c2tBiOBenjo3TeueaaN9WL65gGIHy84spxChjzdMJmCy7Zc08NmZEfr06fntTnmpv7o/iW6FGaq7EOhOYWUXylyhZI2121ES1bLHvu/89MQ5DfW9P1WThX/xwa6BDXieJV9AGX2O8cez66AVNRFXb1eUemASBEw50T0ld0QmqL9ZzCbPzMmlG8ovOxSYAdrc3TqtdUr6ve1tzNLGNgtj9qrKvaRGW3mndR/ToK9z25pXZw8sgCwnRDFP+RZIMAx7YaIRquGdWr74tdhw+0u0COZzaq4jheaQUQouEee+WVLR6yDlOxWJsktcAcu/1b249VnyTbT1V2xXp8Uj8oyM1eREC2VXjtNnJ7nU1b1epJaF9Q9hoqu8rcnGmvk39wG3fY1F/7/J0Zxc//h2YlOgxHg/QJCtI765/rMRsV9YTmfijTABCi4d4J6TSdkB5iX9QRt2rV5vjOJrVYmtcF/7Sr1vZu7pZ8NsrK7hg4nWlIhbtUfVWbMRVAxWwTxX8wbsZUVMT3UfwIF4AUYWExv4L0KG0uZSbKpqmqDQG6rKaq9i3nbfZw6jtrfpTuNwwAFTeqV19bYGxX1Xxmo+zsOejOmvNZTAVAiIbb7Lbu0UwDPHWEgtV7TEOqgvTIKF78LyTf01k4HqTtcZm+zERZ2R8p9tFcj2EqAEI03D8htSt4+0bxFT3AJ0N0/A5nGlIptKvRvEoIPgTpi7W5npkom79oju9jGgBCNPwJ0nYl7yhmAh55TnUi05Da7yx7RV9IJ5sf0VV4EqQP12YkM1FyV2pu/840AIRo+HdSOkyba5kJeMDeB723jlmeGUs3W0xuXgDj+ELHMrdzw6cgbYtePcVMlMy1tgo60wAQouEvexfks0wDHDZdtadCxzdMRbrpGHhHm1sDGMrLdPMnsx3Yh7m0oUZBumsU3toE1XC95vJIpgEAIdrvk1K7srdPFF/pA1xjVx3313FK6MACZzsSvOrjIdr4kwkO7AMr/dc8SG+nzQPMRJ0NSm6PhxvmOLAPrI9BiIbHQdqu8O2mmsJswDEn6/j8D9OAhb6vPtPmGo+HYKvxPkInf/KBA/swnjbUKkjvrs1gZqLWn3tbROwUpsIpEx3Yh09pAyEafp+Yvh7FK3bPYzbgiEE6Lq9gGrAIAyJ/3y7wXx3XX9DCnzzuwD6wyFvtg/Qx2hwX8R7pmrCrnbtpzi5lKpzjwqvFHqcNhGj4H6QfjlixG26wV6qcyjRgMd9VY7Xx9YR0KB38WRizqzDVvp16BJ2oU++u1mbbiNdlLol9V3XQXHGMuenBKv/8aTo2JtAGQjTCODn9pzZnMBOoortUR+pY5AoHlsReDePbCtfvqng84ZdGV/Fn2/fMMFpQ5yBtrx5cTfU2s/ELdoVxNc3RGKbCWTdG1b2b4i1aQIhGWEH6wuQEFag0W7DmAB2DrJaLpX1PTdbmPM92+zztN4/M/NLfqviz31XImUEL6hWkJ6my+ucFEY+EGVv48AjNSU41h+lw+ti1tYDereIuXEIXCNEIz19UQ5gGVDhA78O7oFELtsDYO57sq71j9w5atsgT2buj6i3u1ZcOlKyPZ2mzsaqY4mmw9WXW1FxcxxHhjWp9B0zQcXIP00+IRmCSW2mPIUiDAA2Hv6fsKs9BkRuvKVkSe+b3CB5RcO5E9jOdxPK6ptIG6fdU6+ifFqhnp2jo01R/0th/rfqWI8GrY9a+A6pxy/2ZzD4I0eEH6cuYDZSRPY+4FwEadfyeelWbcx3fzeO1nx/QrSWeyNp6HJW8q8B+v+3FzJetn3ZrdzvV/VHYK3jb7eu2EGYbjflmOu+t3St8nH6SLMwHQjRCDtKqk/XP/swGyuBK1UHJFUWgruyVV3c5um/XJQs2Yum6qir1fPI/dBL7KlNe1iA9RbWH/mlXpp8LMDzfq1pRYzycZ5+9P1btD3jnVOjHzU6+64Cowfz53KFWkYlu0KCqPz+fyZ6ozSDbFbqBEjhb4eJ8pgEl+n5qbhvV1g7tFo8p1DZFDx+4lTbPqBqW8cc8qZPm7Zjtivd2wyh+RMwChK8XYCws29X1Y7htO8hj1P4Yu08Zf4T98cXeGf6Qz/NE7iNEE6LrdqJqXy63qprREdSR/RX2UAULXiuDUn8/tUpOcF0ISAToup/I5rR5WNW4DP/5UTqB7cYsV7W/baP4DSA9Vct6stv2Or0bVGfq+OEzTZCua4DurePH+wUmyX2EaEJ03U9Uf6vNfarl6Qpq6QdVDwWLp5gKlOn7qYU2NyUn6NViq4afwKva6nUia1ctn1WtUKrzPuuLTmCPY3ad6vNu2pyu2jwqzx9N6sMeLbDb0M9K3oeN9ByXtjBe/6h0d0zYKxl30HH0QgjzQ+4jRBOi63eimoniKz6b0BnU0OgkQH/MVKDM30/2ZWlrOdj7hxtV8EdPTcLzDXShJCeydgJrrwo6uJ4ns9+oeuoE9hlm1el+99bmcNVvoupdoR6fBOfBvt9yi3ofj/buc3vufb365M0ovitpv5DeR0/uI0QTout/omq3Tt6i2pPuYCns9qhDFC6mMhWo4HfUJkkI27ICP+4J1WE6xj9h5kt+MmtXo4eqdlE1rcX/aVF1tk5eb2UWvev5mtocqOqu6qhaLir9c9T2fLPdpv2W6kHVbTpWxjH7+H/Hot0tcYnK7o6p6Yn47OR3Qh8dU5+GNifkPkI0Ibo0J6m2U3+N4tVxG9IlLOIkpZ/q77wjF1X6jrITb3uXtL2Tc70y/Ahb1bWvjm/eN1y5E9oDVJ1UK0b/W5/Dbp2flARne576Wp28fseMBdX7DbTZPorvgLN/r6JqrWqparKIcxD7/WPPL09Jjo2vVPaquTdUI3V8fMmsohbHn72yze6UsO+gdZNjb8ExZ1eZx6reVg3XsXVXyHNB7iNEE6JLe6Jqq20OV61Kp5Cwk9leChcvMBVw4DvKbuveW9Unihceq88Xqv3SG6m6ygKbjvF5zDAAIA3IfYRoQnTpT1LtqoA9C7gr3Uo9+yvskQoXPzAVcPC7ym4V3TmKbxW1W71Xq8H/2eeqF6P4KueDOra5ygkAIESDEE2ILsnJqe3k0apLVc3pWupMVB2vgMEziPApVNszt+urVo7iZy8XmBDFt4CO0TH9PTMFACBEk/sI0YTocp6U2vNKdlV6WzqXGo+pDlfY+IypAAAAIESDEE2Irn2QtgV9TojiRcda0MFg2StBTlF4vpmpAAAAIESDEE2Irn+YXjuKF+DhWenw3KY6medDAQAACNEgRBOiSx+me2gzSJWhm96z92ras89PMRUAAACEaNTOMkwBakKB615tNlKdHsXvbYR/xll4Vm1OgAYAAADqhivRlZpoz69ELyyfya6izVmqI1SN6a7zZqj+obpY4Xki0wEAAJA+5D5CNCHajTC9njbnqnrbEOmyc2ZH8SrrFyg8f8F0AAAAEKJBiCZEuxGmN4zi27wPUDWk286E5wt5ZRUAAAAI0YRoQrS7YXp9bU5WHaJqTtcrzp5VH6oapPD8JdMBAAAAQjQhmhDtR5heQZujVceoVqH7ZfeparAFaIXnCUwHAAAACNGEaEK0n2HaFh3bKwnTXTgKSj/FUfwO7wcUnucyHQAAACBEE6IJ0eEE6vZRfJv3wRFXp+vDFgi7SXWjgvPHTAcAAAAI0YRoQnTYYdoWHtte1UvVQ9WaWVkqey3Vv1W32xQqPM9jSgAAAECIJkQTotMXqJtqs3MSpndTLces/OR71QOqe1SPKjjPZEoAAABAiCZEE6KxIFDbFWp7bnonVXfVJimchrdUI1UjVM/wnDMAAAAI0YRoQjRqGqpX0+b3qm5JrRfgMD9UPaV6Mopv0/6azgMAAIAQTYgGIboUodoWI+us2kq1pWqzyK/bvyepXlG9rHpJ9ZxC8zd0FgAAAIRoQjQI0ZUK1mtq00nVUbWRqn1S1QzXP6g+iOKrzO+qRlspMBfpGAAAAAjRhGgQol0M17bid0a1tspuC7er2KuqVkwCdttk21LVJIpXCF9cg+wK8hzVZNWE5P89TjU22X6R1OeqzxSWx9MBAAAAEKIJ0QAAAAAApN4yTAEAAAAAADXzfwIMAHHlCyasVryyAAAAAElFTkSuQmCC;" vertex="1" parent="1">
          <mxGeometry x="210" y="222.5" width="77.89" height="35" as="geometry" />
        </mxCell>
        <mxCell id="HlXFhAkysqfJ9ZURSFGi-43" value="Pytonon MQTT Bridge" style="text;html=1;align=center;verticalAlign=middle;resizable=0;points=[];autosize=1;strokeColor=none;fillColor=none;fontSize=14;" vertex="1" parent="1">
          <mxGeometry x="91.84999999999997" y="20" width="160" height="30" as="geometry" />
        </mxCell>
        <mxCell id="HlXFhAkysqfJ9ZURSFGi-44" value="" style="edgeStyle=orthogonalEdgeStyle;html=1;endArrow=none;elbow=vertical;startArrow=block;startFill=1;strokeColor=#545B64;rounded=0;strokeWidth=2;" edge="1" parent="1">
          <mxGeometry width="100" relative="1" as="geometry">
            <mxPoint x="741" y="81.5" as="sourcePoint" />
            <mxPoint x="789" y="82" as="targetPoint" />
          </mxGeometry>
        </mxCell>
        <mxCell id="HlXFhAkysqfJ9ZURSFGi-45" value="" style="edgeStyle=orthogonalEdgeStyle;html=1;endArrow=none;elbow=vertical;startArrow=block;startFill=1;strokeColor=#545B64;rounded=0;strokeWidth=2;" edge="1" parent="1">
          <mxGeometry width="100" relative="1" as="geometry">
            <mxPoint x="884" y="81.5" as="sourcePoint" />
            <mxPoint x="932" y="82" as="targetPoint" />
          </mxGeometry>
        </mxCell>
        <mxCell id="HlXFhAkysqfJ9ZURSFGi-47" value="" style="edgeStyle=orthogonalEdgeStyle;html=1;endArrow=none;elbow=vertical;startArrow=block;startFill=1;strokeColor=#545B64;rounded=0;strokeWidth=2;" edge="1" parent="1">
          <mxGeometry width="100" relative="1" as="geometry">
            <mxPoint x="1030" y="78" as="sourcePoint" />
            <mxPoint x="1078" y="78.5" as="targetPoint" />
          </mxGeometry>
        </mxCell>
        <mxCell id="HlXFhAkysqfJ9ZURSFGi-48" value="" style="sketch=0;points=[[0,0,0],[0.25,0,0],[0.5,0,0],[0.75,0,0],[1,0,0],[0,1,0],[0.25,1,0],[0.5,1,0],[0.75,1,0],[1,1,0],[0,0.25,0],[0,0.5,0],[0,0.75,0],[1,0.25,0],[1,0.5,0],[1,0.75,0]];outlineConnect=0;fontColor=#232F3E;gradientColor=#60A337;gradientDirection=north;fillColor=#277116;strokeColor=#ffffff;dashed=0;verticalLabelPosition=bottom;verticalAlign=top;align=center;html=1;fontSize=12;fontStyle=0;aspect=fixed;shape=mxgraph.aws4.resourceIcon;resIcon=mxgraph.aws4.iot_core;" vertex="1" parent="1">
          <mxGeometry x="350" y="47" width="78" height="78" as="geometry" />
        </mxCell>
        <mxCell id="HlXFhAkysqfJ9ZURSFGi-49" value="IoT Core rules" style="text;html=1;align=center;verticalAlign=middle;resizable=0;points=[];autosize=1;strokeColor=none;fillColor=none;fontSize=14;" vertex="1" parent="1">
          <mxGeometry x="334.5" y="125" width="110" height="30" as="geometry" />
        </mxCell>
        <mxCell id="HlXFhAkysqfJ9ZURSFGi-50" value="" style="edgeStyle=orthogonalEdgeStyle;html=1;endArrow=none;elbow=vertical;startArrow=block;startFill=1;strokeColor=#545B64;rounded=0;strokeWidth=2;" edge="1" parent="1">
          <mxGeometry width="100" relative="1" as="geometry">
            <mxPoint x="534.5" y="85.67" as="sourcePoint" />
            <mxPoint x="444.5" y="85.67" as="targetPoint" />
          </mxGeometry>
        </mxCell>
      </root>
    </mxGraphModel>
  </diagram>
</mxfile>
